<?xml version="1.0" standalone="no"?>
<!DOCTYPE svg PUBLIC "-//W3C//DTD SVG 20010904//EN"
 "http://www.w3.org/TR/2001/REC-SVG-20010904/DTD/svg10.dtd">
<svg version="1.0" xmlns="http://www.w3.org/2000/svg"
 width="500.000000pt" height="500.000000pt" viewBox="0 0 500.000000 500.000000"
 preserveAspectRatio="xMidYMid meet">
<metadata>
Created by potrace 1.11, written by Peter Selinger 2001-2013
</metadata>
<g transform="translate(0.000000,500.000000) scale(0.100000,-0.100000)"
fill="#000000" stroke="none">
<path d="M2395 4989 c-22 -4 -57 -11 -79 -14 -122 -20 -323 -107 -453 -197
-95 -66 -245 -226 -329 -350 -61 -90 -224 -400 -304 -578 -18 -41 -62 -134
-97 -207 -35 -72 -63 -136 -63 -141 0 -6 -3 -12 -7 -14 -5 -1 -27 -41 -50 -88
-43 -86 -120 -232 -195 -370 -23 -41 -57 -104 -76 -140 -19 -36 -47 -87 -62
-115 -215 -392 -347 -655 -491 -980 -24 -55 -89 -223 -101 -260 -29 -94 -67
-255 -77 -325 -9 -69 -7 -311 4 -370 20 -110 24 -127 51 -208 52 -155 129
-277 241 -382 58 -55 116 -100 129 -100 3 0 18 -8 32 -18 56 -38 207 -90 312
-107 165 -28 423 1 575 64 164 68 295 150 520 327 240 187 380 267 515 292 61
12 223 7 275 -7 88 -25 200 -90 321 -188 135 -108 277 -210 379 -273 78 -48
278 -150 293 -150 6 0 31 -9 57 -20 25 -11 56 -22 68 -25 12 -3 54 -12 92 -22
75 -17 297 -23 369 -9 114 22 265 94 364 173 206 165 335 376 378 618 10 60
12 300 2 359 -5 28 -11 67 -13 86 -9 64 -64 255 -106 371 -43 120 -150 349
-223 477 -104 185 -118 212 -259 502 -115 235 -197 408 -197 414 0 2 -20 46
-44 97 -44 94 -74 160 -136 299 -64 142 -259 525 -330 650 -70 122 -261 415
-297 455 -10 11 -37 45 -60 75 -109 143 -342 311 -503 363 -115 38 -325 56
-425 36z"/>
</g>
</svg>
